<?xml version="1.0" encoding="UTF-8"?>
<svg width="185px" height="268px" viewBox="0 0 185 268" version="1.1" xmlns="http://www.w3.org/2000/svg" xmlns:xlink="http://www.w3.org/1999/xlink">
    <!-- Generator: Sketch 52.6 (67491) - http://www.bohemiancoding.com/sketch -->
    <title>6076d7df4e38902f3be6e146_Doodle-4-White</title>
    <desc>Created with Sketch.</desc>
    <g id="Page-1" stroke="none" stroke-width="1" fill="none" fill-rule="evenodd">
        <g id="Artboard" transform="translate(-169.000000, -58.000000)" fill="#000000">
            <g id="6076d7df4e38902f3be6e146_Doodle-4-White" transform="translate(169.000000, 58.000000)">
                <path d="M57.6583,41.6879 C77.5589,28.5943 105.388,42.809 123.486,25.1107 C125.288,23.3489 126.85,21.3869 128.211,19.2647 C129.893,16.6219 131.214,13.6989 133.377,11.3765 C135.499,9.09414 138.862,7.33231 141.986,8.45347 C144.628,9.41447 145.99,12.2174 146.911,14.6999 C148.232,18.2636 148.953,24.1497 154.038,23.6292 C158.963,23.1487 160.565,17.9033 161.846,13.9392 C162.927,10.7358 163.968,7.01198 165.97,4.24912 C167.372,2.32714 169.975,0.805562 172.217,2.2871 C173.458,3.12796 173.939,4.72962 174.379,6.09103 C175.981,10.9761 179.104,14.5798 184.429,15.1804 C185.19,15.2605 185.19,14.0593 184.429,13.9792 C181.426,13.6188 178.664,11.9771 177.022,9.41447 C175.74,7.4124 175.58,4.96987 174.379,2.9678 C171.937,-1.15647 166.971,0.525272 164.689,3.88875 C163.167,6.17111 162.247,8.97401 161.326,11.5767 C160.285,14.4196 159.684,17.703 157.762,20.1456 C156.721,21.4669 155.159,22.4279 153.437,22.468 C151.115,22.468 150.034,20.4659 149.393,18.5439 C148.672,16.4217 148.112,14.2595 147.111,12.2574 C145.269,8.37339 141.625,5.97091 137.261,7.37236 C131.895,9.13418 129.693,14.6199 126.93,18.9844 C123.687,24.0696 118.962,28.0738 113.436,30.4763 C107.51,33.0389 101.023,33.7597 94.617,34.0399 C81.9234,34.5605 68.1492,33.3993 57.0177,40.7269 C56.377,41.0472 56.9776,42.0883 57.6583,41.6879 Z" id="Path"></path>
                <path d="M36.1961,77.9258 C33.8737,83.6117 29.5492,88.2565 25.3849,92.661 C21.5009,96.7453 17.4968,100.669 13.853,104.954 C6.4453,113.803 2.3611,124.614 1.0398,136.066 C0.3591,141.992 0.8796,148.038 4.203,153.124 C4.6435,153.764 5.6846,153.164 5.2441,152.523 C1.1198,146.196 1.5603,138.468 3.0018,131.381 C4.5634,123.893 6.9258,116.606 11.2904,110.279 C15.2945,104.473 20.4598,99.5482 25.3049,94.4629 C29.9497,89.6179 34.7546,84.5326 37.3173,78.2461 C37.6376,77.5254 36.4764,77.2051 36.1961,77.9258 Z" id="Path"></path>
                <path d="M24.9444,124.334 C23.5429,123.693 24.7842,119.288 24.9844,118.207 C25.3448,116.405 25.8653,114.644 26.506,112.922 C27.2267,111.12 28.1076,109.358 29.2288,107.757 C30.1898,106.395 32.1118,103.632 33.7935,103.112 C34.1539,102.791 34.5944,102.831 35.0749,103.192 C35.8757,103.032 36.2361,103.272 36.156,103.873 C36.3161,104.313 36.156,105.114 36.1159,105.554 C35.9958,106.796 35.7556,107.997 35.4753,109.238 C34.9147,111.48 34.1539,113.683 33.1929,115.765 C32.312,117.727 31.311,119.609 30.2298,121.451 C29.7493,122.292 29.2688,123.132 28.7083,123.933 C27.9875,124.974 24.5039,127.577 24.2236,124.494 C24.1435,123.733 22.9423,123.733 23.0224,124.494 C23.1826,126.416 25.1446,127.497 26.9865,126.936 C29.5491,126.136 30.9906,122.652 32.1518,120.53 C33.8736,117.366 35.3952,114.043 36.3562,110.559 C36.9568,108.437 38.3182,104.313 36.8767,102.271 C33.8736,98.0265 27.4269,108.117 26.3859,110.199 C25.0245,112.962 24.1035,115.965 23.623,119.008 C23.3427,120.77 22.2616,124.334 24.3438,125.295 C25.0645,125.655 25.6651,124.654 24.9444,124.334 Z" id="Path"></path>
                <path d="M15.3346,193.726 C19.579,204.136 26.5462,214.227 36.7968,219.472 C42.7229,222.475 49.3297,223.356 55.8965,223.196 C63.0239,223.036 70.1513,221.715 76.7982,219.112 C84.0857,216.229 90.813,211.264 98.861,210.823 C99.622,210.783 99.622,209.582 98.861,209.622 C92.775,209.942 87.409,212.785 82.0836,215.428 C75.637,218.591 68.91,220.754 61.7426,221.594 C54.8955,222.395 47.5679,222.355 41.0011,219.993 C35.5555,218.071 30.8306,214.547 26.9466,210.343 C22.4219,205.458 19.0184,199.572 16.4958,193.405 C16.2155,192.685 15.0543,193.005 15.3346,193.726 Z" id="Path"></path>
                <path d="M136.54,215.548 C141.025,214.747 145.389,218.07 146.63,222.355 C147.912,226.719 145.95,231.484 142.906,234.648 C135.859,242.055 124.447,241.415 115.118,241.895 C105.588,242.416 96.498,245.018 87.449,247.821 C78.72,250.464 69.8709,252.426 61.1018,254.748 C56.7373,255.91 52.4128,257.271 48.2886,259.153 C46.1263,260.154 44.0442,261.275 42.0821,262.556 C41.3614,263.037 40.0801,263.638 39.5595,264.358 C39.1591,264.959 39.3994,265.88 39.3994,266.561 C39.3994,267.321 40.6006,267.321 40.6006,266.561 C40.6006,265.079 40.9209,264.799 42.1622,263.958 C43.0431,263.357 43.9641,262.757 44.885,262.236 C47.0873,260.955 49.3697,259.914 51.7321,258.993 C56.1367,257.271 60.7014,256.07 65.2661,254.949 C69.8308,253.827 74.3956,252.866 78.8802,251.625 C83.8854,250.264 88.81,248.662 93.776,247.18 C98.741,245.739 103.746,244.418 108.871,243.697 C114.677,242.896 120.523,243.096 126.329,242.536 C134.538,241.735 143.507,238.772 147.031,230.603 C148.753,226.599 148.632,221.994 145.95,218.471 C143.627,215.428 139.983,213.746 136.22,214.427 C135.459,214.507 135.819,215.668 136.54,215.548 Z" id="Path"></path>
                <g id="Group" transform="translate(29.000000, 45.000000)">
                    <path d="M0.601061978,5.46760353 C0.531456333,8.71636021 0.531456333,12.028818 0.601061978,15.2775747 C0.670667622,18.2078258 0.461850689,21.5839847 1.22751278,24.3868336 C1.78435793,26.361568 14.4525852,24.9601436 16.3319376,24.8964425 C19.9514311,24.7690403 23.501319,24.5779369 27.1208125,24.4505347 C27.8864746,24.4505347 31.8539963,24.8327414 32.2020245,23.8135236 C33.0372923,20.9469736 32.6196584,17.3797113 32.689264,14.3857591 C32.7588697,11.5829102 33.5941374,7.76084354 32.7588697,4.95799464 C32.689264,4.83059242 32.6196584,4.70319019 32.4804471,4.70319019 C29.2089818,4.00247797 19.6730085,6.61422353 19.2553747,2.34624908 C18.9769521,-0.456599821 16.262332,0.498916848 13.7565288,0.56261796 C12.6428385,0.56261796 7.35280948,-0.39289871 7.28320384,1.45443352 C7.28320384,1.96404241 7.7008377,4.38468464 6.51754175,4.38468464 C5.40385144,4.38468464 4.29016113,4.44838575 3.17647082,4.44838575 C1.99317487,4.51208686 1.29711842,4.51208686 0.461850689,5.14909797 C0.0442168228,5.46760353 0.670667622,6.04091353 1.08830149,5.72240797 C2.41080873,4.70319019 6.03030224,5.14909797 7.7008377,5.14909797 C7.90965464,5.14909797 8.11847157,4.95799464 8.11847157,4.7668913 C8.11847157,3.81137464 7.63123206,1.39073241 9.64979575,1.39073241 C11.0419086,1.39073241 12.3644159,1.39073241 13.7565288,1.3270313 C15.4966699,1.3270313 18.21129,0.690020182 18.4897126,3.36546686 C18.6289239,4.51208686 18.4201069,4.1935813 18.5593182,4.95799464 C18.5593182,5.08539686 18.6985295,5.21279908 18.8377408,5.21279908 C21.0651214,5.78610909 23.9885585,5.34020131 26.2855448,5.34020131 C27.6776576,5.34020131 29.0697705,5.34020131 30.4618834,5.34020131 C32.8284753,5.34020131 31.9236019,9.54447465 31.9236019,10.6273935 C31.8539963,13.5576447 31.714785,16.4878958 31.6451794,19.481848 C31.5755737,21.7113869 31.5059681,23.495018 28.5129254,23.6224202 C26.7031786,23.6861214 24.8934319,23.7498225 23.0836851,23.8772247 C16.6103602,24.1320291 10.0674296,24.641638 3.66371033,24.3231325 C0.0442168228,24.1320291 1.36672407,7.95194687 1.43632971,5.46760353 C1.43632971,4.95799464 0.601061978,4.95799464 0.601061978,5.46760353 Z" id="Path"></path>
                    <path d="M7.72653237,9.95255685 C5.22072917,12.8191069 4.24625015,16.8322769 6.33441948,20.1447347 C8.35298317,23.3934913 13.7126178,23.5208936 16.7056605,21.6098602 C19.5594919,19.762528 20.325154,14.5390369 19.0026468,11.7998891 C17.1929,7.85042018 11.2068146,8.04152351 7.86574366,9.76145351 C7.37850415,10.016258 7.79613801,10.7169702 8.28337752,10.4621657 C11.2764202,8.93333907 14.5478855,8.93333907 17.2625056,11.0354757 C19.8379145,13.0739113 18.6546185,18.3611035 16.7752661,20.4632402 C13.9910404,23.7119969 7.86574366,21.9920669 6.40402512,18.4885058 C5.29033481,15.8130591 6.47363077,12.6280035 8.28337752,10.5258668 C8.70101139,10.0799591 8.07456059,9.50664907 7.72653237,9.95255685 Z" id="Path"></path>
                    <path d="M21.9637438,9.10981796 C21.9637438,9.81053018 21.8245325,10.6386446 21.9637438,11.3393569 C22.1029551,11.9126669 22.5901946,12.0400691 23.1470398,12.1674713 C24.3999414,12.4859769 26.4185051,12.549678 27.5321954,11.7852646 C28.3674631,11.2756557 28.4370688,9.61942685 27.7410123,8.91871462 C27.2537728,8.47280685 26.2792938,8.72761129 25.7224486,8.72761129 C24.678364,8.72761129 23.5646736,8.72761129 22.520589,8.60020907 C21.9637438,8.53650796 21.9637438,9.3646224 22.520589,9.42832351 C23.4254624,9.49202463 24.3999414,9.55572574 25.3048148,9.55572574 C25.8616599,9.55572574 26.3488994,9.55572574 26.9057446,9.49202463 C27.7410123,9.42832351 27.0449559,11.0845524 26.8361389,11.2119546 C26.1400825,11.6578624 24.7479696,11.5304602 23.9127019,11.4667591 C23.1470398,11.403058 22.7294059,11.3393569 22.7294059,10.5749435 C22.7294059,10.0653346 22.7294059,9.61942685 22.7294059,9.10981796 C22.8686172,8.60020907 21.9637438,8.60020907 21.9637438,9.10981796 Z" id="Path"></path>
                    <path d="M10.3451173,12.549953 C8.74418746,13.123263 8.53537052,14.7157908 8.74418746,16.1172152 C9.02261003,17.9645474 10.5539342,18.283053 12.363681,18.1556508 C14.3822447,18.0282485 15.0086955,16.1172152 15.0086955,14.5883885 C15.0086955,12.6773552 12.4332866,12.6773552 10.9715681,12.4225508 C10.4147229,12.3588496 10.205906,13.123263 10.7627511,13.1869641 C11.6676245,13.3143663 12.6421035,13.4417685 13.5469769,13.696573 C14.4518503,13.8876763 14.2430334,15.2891008 14.1038221,15.7987097 C13.9646108,16.4994219 13.33816,17.0727319 12.6421035,17.2638352 C11.5284132,17.5823408 9.99708906,17.3275363 9.71866648,16.1809163 C9.50984955,15.2891008 9.57945519,13.696573 10.6235399,13.3143663 C11.1107794,13.123263 10.9019624,12.3588496 10.3451173,12.549953 Z" id="Path"></path>
                </g>
                <g id="Group" transform="translate(1.000000, 156.000000)">
                    <path d="M3.34367832,7.71398706 C3.27231719,12.6088849 1.41692784,20.8150373 7.12581813,23.4784376 C8.98120748,24.3422431 11.9783749,24.0543079 13.7624031,23.1905024 C16.3314037,21.966778 16.8309316,19.4473452 17.3304595,16.8559287 C18.3295153,11.7450794 18.9004044,3.82686226 13.8337642,0.731559188 C9.33801312,-2.00382492 4.48545637,3.53892709 3.20095606,7.35406809 C2.98687267,7.92993843 3.84320622,8.14588981 4.0572896,7.57001947 C5.84131782,2.24321883 13.8337642,-2.65167906 16.474126,5.48248949 C17.615904,8.93771153 16.9022928,14.336496 16.2600426,17.7197342 C15.1182645,23.8383566 7.98215168,24.7741459 4.77090089,19.7352804 C2.91551155,16.8559287 4.20001186,10.8812739 4.27137299,7.64200326 C4.20001186,7.13811672 3.34367832,7.13811672 3.34367832,7.71398706 Z" id="Path"></path>
                    <path d="M7.03305785,2.46898263 C7.03305785,4.48387097 6.95867769,6.56823821 7.03305785,8.58312655 C7.03305785,9.13895782 8,9.13895782 8,8.58312655 C8,6.56823821 8,4.48387097 8,2.46898263 C8,1.84367246 7.03305785,1.84367246 7.03305785,2.46898263 Z" id="Path"></path>
                    <path d="M10.0727273,1.4137931 C10.1454545,3.82758621 10.0727273,6.17241379 10,8.5862069 C10,9.13793103 10.8727273,9.13793103 10.9454545,8.5862069 C11.0181818,6.17241379 11.0181818,3.75862069 10.9454545,1.4137931 C10.9454545,0.862068966 10.0727273,0.862068966 10.0727273,1.4137931 Z" id="Path"></path>
                    <path d="M13.0682275,1.41025641 C13.1364549,3.8034188 13.1364549,6.1965812 13,8.58974359 C13,9.13675214 13.8187296,9.13675214 13.886957,8.58974359 C14.023412,6.1965812 14.023412,3.8034188 13.9551845,1.41025641 C13.886957,0.863247863 13.0682275,0.863247863 13.0682275,1.41025641 Z" id="Path"></path>
                    <path d="M0.00430858664,12.4298177 C0.514868275,16.298177 0.29605698,21.2410805 2.19242154,24.7512584 C3.57822641,27.186892 7.73564101,27.688346 10.2155024,27.9748911 C12.7683008,28.2614362 16.633967,26.0407114 18.0197719,24.1065318 C20.2808219,20.8828991 20.0620106,16.298177 19.9161364,12.501454 C19.9161364,11.9283637 18.9679542,11.9283637 18.9679542,12.501454 C19.1138284,15.2236327 18.9679542,17.9458115 18.6032687,20.5963539 C18.0197719,24.2498044 13.7894202,26.9003468 10.2155024,27.0436194 C6.71452163,27.186892 2.77591832,25.1810761 2.11948444,21.6708982 C1.53598765,18.6621743 1.31717636,15.4385416 0.952490865,12.4298177 C0.806616668,11.8567274 -0.0686285117,11.8567274 0.00430858664,12.4298177 Z" id="Path"></path>
                    <path d="M10.0126122,27.4421612 C9.96124982,29.2108058 10.0639746,30.9794504 10.3721488,32.6744015 C10.4748736,33.2639497 11.0912221,32.9691756 10.9884974,32.4533209 C10.6803231,30.8320634 10.5775984,29.1371123 10.6289607,27.4421612 C10.6803231,26.8526129 10.0126122,26.8526129 10.0126122,27.4421612 Z" id="Path"></path>
                    <path d="M5.44,34 C7.2,34 8.96,33.9083609 10.72,33.7250827 C12.3333333,33.5418045 13.9466667,32.99197 15.56,33.2668873 C16.1466667,33.3585264 16.1466667,32.2588572 15.56,32.0755791 C13.9466667,31.8006618 12.3333333,32.3504963 10.72,32.5337745 C8.96,32.7170527 7.2,32.8086918 5.44,32.8086918 C4.85333333,32.8086918 4.85333333,34 5.44,34 Z" id="Path"></path>
                </g>
                <g id="Group" transform="translate(108.000000, 197.000000)">
                    <path d="M0,1.277185 C0.0650112519,9.51031088 -0.195033756,17.9250498 1.10519128,26.097638 C1.56027005,29.0034472 5.1358889,27.7321557 7.60631648,27.671618 C10.2067666,27.5505426 12.7422054,27.3689295 15.3426555,27.1873165 C16.5778692,27.0662411 18.5932181,27.2478542 19.6984093,26.6424773 C20.1534881,26.4003265 19.9584543,25.0079596 19.9584543,24.8868842 C19.9584543,22.586452 19.8934431,20.2860198 19.7634206,17.9855875 C19.5683868,13.3847231 19.1133081,8.7838586 18.5932181,4.24353182 C18.2681618,1.64041114 18.9182743,-0.115181883 15.7977342,0.00589349813 C10.6618453,0.187506569 5.52595642,0.490195021 0.390067512,0.732345782 C-0.130022504,0.732345782 -0.130022504,1.51933576 0.390067512,1.51933576 C3.83566386,1.33772269 7.21624897,1.15610961 10.6618453,0.974496544 C12.3521379,0.913958853 14.0424304,0.792883473 15.7977342,0.732345782 C18.3981843,0.611270402 17.6830605,3.51707954 17.8780943,5.33321025 C18.6582293,11.8107431 19.0482968,18.3488137 19.1133081,24.8868842 C19.1133081,27.0662411 10.4018003,26.7635526 8.84153026,26.884628 C7.15123771,27.0057034 5.39593391,27.0057034 3.70564136,27.0662411 C0.910157527,27.0662411 1.43024754,22.4048389 1.30022504,20.830859 C0.845146275,14.3533261 0.845146275,7.81525555 0.780135023,1.277185 C0.780135023,0.792883473 0,0.792883473 0,1.277185 Z" id="Path"></path>
                    <path d="M7.3956044,3 C9.10989011,2.93333333 10.8901099,2.86666667 12.6043956,2.86666667 C13.1318681,2.86666667 13.1318681,2 12.6043956,2 C10.8901099,2.06666667 9.10989011,2.13333333 7.3956044,2.13333333 C6.86813187,2.2 6.86813187,3 7.3956044,3 Z" id="Path"></path>
                    <path d="M3,4.66244109 C3.12752128,8.15531228 3.19128192,11.6481835 3.3188032,15.2012766 C3.38256384,16.4659368 2.6811968,20.6212491 3.70136704,21.5847998 C4.65777664,22.4881285 8.80221824,21.6450217 10.077431,21.5847998 C11.4164045,21.5245779 15.4970854,21.8256875 16.453495,20.9223587 C17.7287078,19.7179204 16.3897344,16.4057149 16.2622131,15.1410547 C15.9434099,11.8288492 16.0709312,8.51664378 15.9434099,5.20443834 C15.8796493,4.48177534 15.4970854,4 14.7319578,4 C10.97008,4.12044383 7.33572352,4.30110959 3.6376064,4.48177534 C3.12752128,4.48177534 3.12752128,5.26466026 3.6376064,5.26466026 C5.67794688,5.14421642 7.71828736,5.08399451 9.75862784,4.96355067 C10.97008,4.90332876 12.1815322,4.84310684 13.3929843,4.78288492 C15.5608461,4.66244109 15.1782822,7.43264927 15.1782822,8.45642186 C15.2420429,9.84152596 16.5810163,20.2599176 14.6044365,20.4405834 C12.6916173,20.6212491 10.7787981,20.7416929 8.86597888,20.8621368 C7.71828736,20.9223587 6.57059584,20.9223587 5.42290432,20.9825806 C3.76512768,21.0428025 4.21145216,18.2725943 4.21145216,17.5499313 C4.02017024,13.2139533 3.89264896,8.9381972 3.76512768,4.66244109 C3.76512768,4.18066575 3,4.18066575 3,4.66244109 Z" id="Path"></path>
                    <path d="M10.650388,23.9292704 C11.0067427,24.3705341 11.1492845,24.8117977 11.1492845,25.3160991 C11.1492845,25.6312874 11.0067427,26.0095134 10.579117,26.0725511 C10.2940333,26.0725511 10.0802205,26.1355887 9.79513674,26.0725511 C9.1536983,25.9464757 8.93988549,25.0639484 8.93988549,24.5596471 C8.93988549,23.8031951 10.2940333,23.6771197 10.8642008,23.8662327 C11.4343683,24.0553457 11.6481811,23.2988937 11.0780136,23.1097807 C10.0802205,22.7945924 8.65480174,23.1728184 8.15590518,24.0553457 C7.72827955,24.8748354 8.22717611,26.2616641 9.08242736,26.7659654 C9.79513674,27.1441914 11.2205555,27.0811537 11.6481811,26.4507771 C12.2183486,25.5682497 12.0758067,24.4335717 11.3630974,23.6140821 C11.0780136,23.1097807 10.2940333,23.4880067 10.650388,23.9292704 Z" id="Path"></path>
                </g>
            </g>
        </g>
    </g>
</svg>